<svg xmlns="http://www.w3.org/2000/svg" width="340" height="92" viewBox="0 0 340 92" role="img" aria-label="Support via Tribute">
  <defs>
    <linearGradient id="g" x1="0" y1="0" x2="1" y2="1">
      <stop offset="0" stop-color="#38bdf8"/>
      <stop offset="1" stop-color="#2563eb"/>
    </linearGradient>
    <filter id="s" x="-20%" y="-40%" width="140%" height="180%">
      <feDropShadow dx="0" dy="10" stdDeviation="10" flood-color="#020617" flood-opacity="0.45"/>
    </filter>
  </defs>
  <rect x="2" y="2" width="336" height="88" rx="24" fill="#0f172a" filter="url(#s)"/>
  <rect x="3" y="3" width="334" height="86" rx="23" fill="url(#g)" opacity="0.96"/>
  <circle cx="48" cy="46" r="25" fill="#26A5E4"/>
  <g transform="translate(23 21) scale(2.083333)">
    <path d="M11.944 0A12 12 0 0 0 0 12a12 12 0 0 0 12 12 12 12 0 0 0 12-12A12 12 0 0 0 12 0a12 12 0 0 0-.056 0zm4.962 7.224c.1-.002.321.023.465.14a.506.506 0 0 1 .171.325c.016.093.036.306.02.472-.18 1.898-.962 6.502-1.36 8.627-.168.9-.499 1.201-.82 1.23-.696.065-1.225-.46-1.9-.902-1.056-.693-1.653-1.124-2.678-1.8-1.185-.78-.417-1.21.258-1.91.177-.184 3.247-2.977 3.307-3.23.007-.032.014-.15-.056-.212s-.174-.041-.249-.024c-.106.024-1.793 1.14-5.061 3.345-.48.33-.913.49-1.302.48-.428-.008-1.252-.241-1.865-.44-.752-.245-1.349-.374-1.297-.789.027-.216.325-.437.893-.663 3.498-1.524 5.83-2.529 6.998-3.014 3.332-1.386 4.025-1.627 4.476-1.635z" fill="#fff"/>
  </g>
  <text x="94" y="39" fill="#eff6ff" font-family="Inter, Segoe UI, Arial, sans-serif" font-size="15" font-weight="700">Поддержать LibreRTC</text>
  <text x="94" y="62" fill="#dbeafe" font-family="Inter, Segoe UI, Arial, sans-serif" font-size="19" font-weight="800">Tribute</text>
</svg>